<svg id="visual" viewBox="0 0 960 540" width="960" height="540" xmlns="http://www.w3.org/2000/svg" xmlns:xlink="http://www.w3.org/1999/xlink" version="1.1"><rect x="0" y="0" width="960" height="540" fill="#000"></rect><path d="M0 371L69 328L137 362L206 348L274 347L343 368L411 381L480 376L549 338L617 346L686 324L754 378L823 344L891 364L960 368L960 541L891 541L823 541L754 541L686 541L617 541L549 541L480 541L411 541L343 541L274 541L206 541L137 541L69 541L0 541Z" fill="#4e0043"></path><path d="M0 401L69 365L137 383L206 383L274 396L343 391L411 380L480 385L549 380L617 389L686 378L754 364L823 403L891 380L960 406L960 541L891 541L823 541L754 541L686 541L617 541L549 541L480 541L411 541L343 541L274 541L206 541L137 541L69 541L0 541Z" fill="#410438"></path><path d="M0 407L69 445L137 446L206 444L274 411L343 429L411 417L480 409L549 439L617 452L686 409L754 430L823 401L891 402L960 401L960 541L891 541L823 541L754 541L686 541L617 541L549 541L480 541L411 541L343 541L274 541L206 541L137 541L69 541L0 541Z" fill="#34062e"></path><path d="M0 464L69 459L137 440L206 458L274 475L343 466L411 444L480 474L549 479L617 469L686 452L754 453L823 469L891 469L960 440L960 541L891 541L823 541L754 541L686 541L617 541L549 541L480 541L411 541L343 541L274 541L206 541L137 541L69 541L0 541Z" fill="#280624"></path><path d="M0 481L69 479L137 508L206 501L274 486L343 496L411 504L480 492L549 489L617 483L686 499L754 477L823 486L891 482L960 491L960 541L891 541L823 541L754 541L686 541L617 541L549 541L480 541L411 541L343 541L274 541L206 541L137 541L69 541L0 541Z" fill="#1e001a"></path></svg>